# xmcd CD database file
#
# Track frame offsets:
#	150
#	17438
#	37898
#	53271
#	72145
#	101839
#	119585
#	149154
#	165299
#	185956
#	204527
#	219337
#	236243
#
# Disc length: 3514 seconds
#
# Revision: 11
# Processed by: cddbd v1.5.2PL0 Copyright (c) Steve Scherf et al.
# Submitted via: jetAudio 7
#
DISCID=b90db80d
DTITLE=Derek and the Dominos - Layla and Other Assorted Love Songs Delu
DTITLE=xe Edition Disc 2 Bonus Disc UICY-15015-6
DYEAR=1970
DGENRE=Blues Rock/Classic Rock
TTITLE0=Mean Old World - (Layla Session Out-Take)
TTITLE1=Roll It Over - (Phil Spector Produced Single B-Side)
TTITLE2=Tell The Truth - (Phil Spector Produced Single A-Side)
TTITLE3=It's Too Late (Live 'The Johnny Cash Show' 1970)
TTITLE4=Got To Get Better In A Little While (Live 'The Johnny Cash Sho
TTITLE5=Matchbox (With Johnny Cash and Carl Perkins) (Live 'The Johnny C
TTITLE6=Blues Power (Live On 'The Johnny Cash Show' 1970)
TTITLE7=Snake Lake Blues - (2010 Remixed)
TTITLE8=Evil - (2010 Remixed)
TTITLE9=Mean Old Frisco - (2010 Remixed)
TTITLE10=One More Chance - (2010 Remixed)
TTITLE11=Got To Get Better In A Little While Jam (2010 Remixed)
TTITLE12=Got To Get Better In A Little While (2010 Remixed)
EXTD=
EXTT0=
EXTT1=
EXTT2=
EXTT3=
EXTT4=
EXTT5=
EXTT6=
EXTT7=
EXTT8=
EXTT9=
EXTT10=
EXTT11=
EXTT12=
PLAYORDER=
